<svg width="30" height="30" viewBox="0 0 30 30" fill="none" xmlns="http://www.w3.org/2000/svg">
<g opacity="0.2">
<path fill-rule="evenodd" clip-rule="evenodd" d="M20.3113 10.6905C20.4836 10.7861 20.6354 10.9147 20.7579 11.069C20.8805 11.2232 20.9715 11.4001 21.0257 11.5896C21.0799 11.779 21.0962 11.9773 21.0737 12.1731C21.0513 12.3688 20.9905 12.5582 20.8948 12.7305L16.7278 20.2305C16.6321 20.4026 16.5034 20.5543 16.349 20.6767C16.1947 20.7991 16.0178 20.8899 15.8283 20.944C15.6389 20.998 15.4407 21.0142 15.245 20.9917C15.0493 20.9691 14.86 20.9082 14.6878 20.8125C14.5156 20.7167 14.364 20.588 14.2416 20.4337C14.1192 20.2794 14.0283 20.1024 13.9743 19.913C13.9203 19.7236 13.9041 19.5254 13.9266 19.3297C13.9492 19.134 14.0101 18.9446 14.1058 18.7725L18.2713 11.2725C18.367 11.1003 18.4957 10.9487 18.6501 10.8263C18.8044 10.7038 18.9813 10.613 19.1708 10.559C19.3602 10.5049 19.5584 10.4887 19.7541 10.5113C19.9498 10.5338 20.1391 10.5947 20.3113 10.6905Z" fill="black"/>
<path fill-rule="evenodd" clip-rule="evenodd" d="M10.0799 15.231C10.3284 14.9207 10.69 14.7217 11.0852 14.6778C11.4804 14.6339 11.8768 14.7487 12.1874 14.997L16.3544 18.33C16.5082 18.4531 16.6363 18.6054 16.7313 18.778C16.8264 18.9506 16.8865 19.1402 16.9082 19.3361C16.9299 19.5319 16.9129 19.7301 16.858 19.9194C16.8031 20.1086 16.7115 20.2852 16.5884 20.439C16.4653 20.5929 16.3131 20.721 16.1405 20.816C15.9678 20.911 15.7782 20.9711 15.5824 20.9928C15.3865 21.0145 15.1883 20.9975 14.9991 20.9426C14.8098 20.8878 14.6332 20.7961 14.4794 20.673L10.3124 17.3385C10.002 17.09 9.80304 16.7284 9.75917 16.3332C9.71529 15.938 9.83161 15.5416 10.0799 15.231Z" fill="black"/>
<path fill-rule="evenodd" clip-rule="evenodd" d="M17.2048 7.038C17.0198 6.85316 16.7689 6.74933 16.5073 6.74933C16.2458 6.74933 15.9949 6.85316 15.8098 7.038C14.4493 8.397 12.2713 9.234 10.3558 9.138C10.2176 9.12988 10.0793 9.15122 9.95002 9.20061C9.82071 9.25 9.70339 9.32632 9.60582 9.4245C9.51149 9.51809 9.43729 9.62996 9.38776 9.75326C9.33824 9.87656 9.31444 10.0087 9.31782 10.1415C9.33882 11.2215 9.06732 12.3 8.71032 13.1865C8.35332 14.0745 7.80132 15.039 7.03782 15.804C6.85298 15.9891 6.74915 16.2399 6.74915 16.5015C6.74915 16.7631 6.85298 17.0139 7.03782 17.199C8.37732 18.54 9.27882 20.6505 9.31782 22.548C9.32186 22.8024 9.42522 23.0452 9.60582 23.2245C9.77785 23.3987 10.0093 23.5015 10.2538 23.5125C11.3113 23.565 12.3628 23.877 13.2433 24.267C14.1253 24.6585 15.0613 25.2285 15.8083 25.977C15.9934 26.1619 16.2443 26.2657 16.5058 26.2657C16.7674 26.2657 17.0183 26.1619 17.2033 25.977C17.9518 25.2285 18.8878 24.6585 19.7683 24.267C20.6503 23.877 21.7033 23.565 22.7578 23.5125C23.0024 23.5015 23.2338 23.3987 23.4058 23.2245C23.587 23.0455 23.6909 22.8027 23.6953 22.548C23.7343 20.6505 24.6343 18.54 25.9753 17.199C26.1602 17.0139 26.264 16.7631 26.264 16.5015C26.264 16.2399 26.1602 15.9891 25.9753 15.804C25.2103 15.039 24.6598 14.0745 24.3028 13.1865C23.9458 12.3 23.6728 11.2215 23.6953 10.1415C23.6985 10.0086 23.6745 9.87638 23.6247 9.75308C23.5749 9.62978 23.5004 9.51796 23.4058 9.4245C23.3086 9.32625 23.1915 9.24977 23.0625 9.20012C22.9335 9.15047 22.7954 9.12879 22.6573 9.13651C20.7403 9.234 18.5623 8.397 17.2048 7.038ZM6.31932 10.2C6.34182 11.3385 5.72232 12.8775 4.91682 13.6815C4.54637 14.0518 4.25249 14.4914 4.05199 14.9752C3.85149 15.4591 3.74829 15.9777 3.74829 16.5015C3.74829 17.0253 3.85149 17.5439 4.05199 18.0278C4.25249 18.5116 4.54637 18.9512 4.91682 19.3215C5.71182 20.1135 6.29682 21.4875 6.31932 22.6095C6.34032 23.6025 6.72882 24.5895 7.48632 25.3455C8.18503 26.046 9.12004 26.4606 10.1083 26.508C11.2948 26.568 12.8488 27.258 13.6888 28.098C14.059 28.4682 14.4986 28.7619 14.9823 28.9623C15.466 29.1627 15.9845 29.2658 16.5081 29.2658C17.0317 29.2658 17.5501 29.1627 18.0338 28.9623C18.5176 28.7619 18.9571 28.4682 19.3273 28.098C20.1673 27.258 21.7213 26.568 22.9078 26.508C23.8961 26.4606 24.8311 26.046 25.5298 25.3455C26.2578 24.6187 26.6756 23.638 26.6953 22.6095C26.7193 21.4875 27.3043 20.1135 28.0978 19.32C28.4681 18.9498 28.7617 18.5103 28.9621 18.0265C29.1625 17.5428 29.2656 17.0243 29.2656 16.5008C29.2656 15.9772 29.1625 15.4587 28.9621 14.975C28.7617 14.4913 28.4681 14.0517 28.0978 13.6815C27.2938 12.8775 26.6728 11.3385 26.6968 10.2015C26.7081 9.66468 26.6105 9.13113 26.41 8.63305C26.2094 8.13497 25.91 7.68269 25.5298 7.3035C25.1358 6.90854 24.663 6.60092 24.1423 6.40064C23.6215 6.20036 23.0645 6.1119 22.5073 6.141C21.4363 6.195 20.0848 5.676 19.3273 4.917C18.9571 4.54655 18.5174 4.25267 18.0336 4.05217C17.5497 3.85167 17.0311 3.74847 16.5073 3.74847C15.9836 3.74847 15.4649 3.85167 14.9811 4.05217C14.4972 4.25267 14.0576 4.54655 13.6873 4.917C12.9313 5.6745 11.5783 6.195 10.5073 6.141C9.95041 6.11211 9.39364 6.20068 8.87318 6.40095C8.35272 6.60123 7.88021 6.90874 7.48632 7.3035C7.10634 7.68252 6.80704 8.13455 6.60648 8.63236C6.40591 9.13016 6.30823 9.66343 6.31932 10.2Z" fill="black"/>
</g>
<path fill-rule="evenodd" clip-rule="evenodd" d="M18.4465 9.84594C18.5326 9.8938 18.6084 9.95816 18.6696 10.0353C18.7309 10.1125 18.7763 10.201 18.8033 10.2957C18.8303 10.3904 18.8384 10.4895 18.8271 10.5873C18.8158 10.6852 18.7854 10.7799 18.7375 10.8659L14.572 18.3659C14.5242 18.452 14.4598 18.5278 14.3826 18.589C14.3055 18.6503 14.217 18.6957 14.1223 18.7227C14.0276 18.7497 13.9285 18.7578 13.8306 18.7465C13.7328 18.7353 13.6381 18.7048 13.552 18.6569C13.4659 18.6091 13.3901 18.5447 13.3289 18.4676C13.2677 18.3904 13.2223 18.3019 13.1953 18.2072C13.1683 18.1125 13.1602 18.0134 13.1714 17.9155C13.1827 17.8177 13.2132 17.723 13.261 17.6369L17.4265 10.1369C17.4744 10.0509 17.5387 9.97504 17.6159 9.91383C17.6931 9.85262 17.7815 9.8072 17.8763 9.78018C17.971 9.75316 18.0701 9.74506 18.1679 9.75634C18.2658 9.76762 18.3604 9.79807 18.4465 9.84594Z" fill="black"/>
<path fill-rule="evenodd" clip-rule="evenodd" d="M9.1648 14.199C9.28905 14.044 9.4697 13.9447 9.66711 13.9227C9.86452 13.9008 10.0626 13.9581 10.2178 14.082L14.3848 17.415C14.5402 17.5393 14.6398 17.7202 14.6617 17.918C14.6836 18.1158 14.6261 18.3141 14.5018 18.4695C14.3775 18.6248 14.1965 18.7244 13.9988 18.7464C13.801 18.7683 13.6027 18.7108 13.4473 18.5865L9.2818 15.255C9.20486 15.1934 9.14079 15.1173 9.09326 15.031C9.04574 14.9447 9.01568 14.8499 9.00482 14.752C8.99395 14.654 9.00249 14.5549 9.02994 14.4603C9.05739 14.3657 9.10322 14.2774 9.1648 14.2005" fill="black"/>
<path fill-rule="evenodd" clip-rule="evenodd" d="M6.2968 6.11548C6.05956 6.35186 5.87275 6.63394 5.74771 6.94463C5.62266 7.25532 5.56197 7.58815 5.5693 7.92298C5.5843 8.74798 5.3743 9.62098 5.0698 10.377C4.7653 11.1345 4.3108 11.91 3.7288 12.4935C3.49781 12.7244 3.31458 12.9986 3.18956 13.3004C3.06455 13.6021 3.0002 13.9256 3.0002 14.2522C3.0002 14.5789 3.06455 14.9023 3.18956 15.2041C3.31458 15.5058 3.49781 15.78 3.7288 16.011C4.7938 17.0775 5.5378 18.8205 5.5693 20.3295C5.58115 20.9589 5.8318 21.5602 6.27047 22.0117C6.70913 22.4632 7.30302 22.731 7.9318 22.761C8.7568 22.8015 9.6253 23.052 10.3873 23.391C11.1478 23.7285 11.9158 24.204 12.4993 24.7875C12.7302 25.0185 13.0044 25.2017 13.3062 25.3267C13.608 25.4517 13.9314 25.5161 14.2581 25.5161C14.5847 25.5161 14.9081 25.4517 15.2099 25.3267C15.5117 25.2017 15.7859 25.0185 16.0168 24.7875C16.6003 24.204 17.3668 23.7285 18.1288 23.3895C18.8908 23.052 19.7593 22.8015 20.5843 22.761C21.2132 22.7314 21.8073 22.4636 22.246 22.0121C22.6848 21.5605 22.9353 20.959 22.9468 20.3295C22.9768 18.8205 23.7208 17.0775 24.7873 16.0095C25.2534 15.5431 25.5152 14.9108 25.5152 14.2515C25.5152 13.5922 25.2534 12.9598 24.7873 12.4935C24.2038 11.91 23.7508 11.1345 23.4463 10.3785C23.1403 9.62098 22.9303 8.74648 22.9468 7.92298C22.9539 7.58804 22.893 7.25514 22.7677 6.94445C22.6424 6.63376 22.4553 6.35174 22.2178 6.11548C21.9724 5.86893 21.6778 5.67685 21.3531 5.55176C21.0285 5.42667 20.6812 5.37138 20.3338 5.38948C18.8398 5.46448 17.0743 4.78648 16.0168 3.72898C15.7859 3.49799 15.5117 3.31475 15.2099 3.18974C14.9081 3.06472 14.5847 3.00038 14.2581 3.00038C13.9314 3.00038 13.608 3.06472 13.3062 3.18974C13.0044 3.31475 12.7302 3.49799 12.4993 3.72898C11.4418 4.78648 9.6763 5.46448 8.1823 5.38948C7.83465 5.37116 7.48704 5.42636 7.16215 5.55145C6.83726 5.67655 6.5424 5.86874 6.2968 6.11548ZM4.0693 7.94998C4.0918 9.08698 3.4723 10.6275 2.6668 11.4315C2.29657 11.8017 2.00289 12.2412 1.80252 12.725C1.60215 13.2087 1.49902 13.7271 1.49902 14.2507C1.49902 14.7743 1.60215 15.2928 1.80252 15.7765C2.00289 16.2602 2.29657 16.6998 2.6668 17.07C3.4618 17.8635 4.0468 19.2375 4.0693 20.358C4.0903 21.351 4.4788 22.338 5.2363 23.0955C5.93501 23.796 6.87002 24.2106 7.8583 24.258C9.0448 24.318 10.5988 25.0065 11.4388 25.848C11.809 26.2182 12.2486 26.5119 12.7323 26.7123C13.216 26.9126 13.7345 27.0158 14.2581 27.0158C14.7816 27.0158 15.3001 26.9126 15.7838 26.7123C16.2676 26.5119 16.7071 26.2182 17.0773 25.848C17.9173 25.0065 19.4713 24.318 20.6578 24.258C21.6461 24.2106 22.5811 23.796 23.2798 23.0955C24.0082 22.3684 24.426 21.387 24.4453 20.358C24.4693 19.2375 25.0543 17.8635 25.8478 17.07C26.218 16.6998 26.5117 16.2602 26.7121 15.7765C26.9125 15.2928 27.0156 14.7743 27.0156 14.2507C27.0156 13.7271 26.9125 13.2087 26.7121 12.725C26.5117 12.2412 26.218 11.8017 25.8478 11.4315C25.0438 10.6275 24.4228 9.08698 24.4468 7.95148C24.4583 7.4144 24.3608 6.88057 24.1602 6.38222C23.9597 5.88387 23.6602 5.43134 23.2798 5.05198C22.8857 4.65702 22.413 4.3494 21.8923 4.14911C21.3715 3.94883 20.8145 3.86037 20.2573 3.88948C19.1863 3.94348 17.8348 3.42448 17.0773 2.66548C16.707 2.29502 16.2674 2.00115 15.7836 1.80065C15.2997 1.60015 14.7811 1.49695 14.2573 1.49695C13.7335 1.49695 13.2149 1.60015 12.731 1.80065C12.2472 2.00115 11.8076 2.29502 11.4373 2.66548C10.6813 3.42448 9.3283 3.94348 8.2573 3.88948C7.70039 3.86058 7.14362 3.94915 6.62316 4.14943C6.1027 4.3497 5.63019 4.65721 5.2363 5.05198C4.85614 5.43117 4.55673 5.88345 4.35616 6.38152C4.15559 6.8796 4.05801 7.41315 4.0693 7.94998Z" fill="black"/>
</svg>
