<svg width="14" height="17" viewBox="0 0 14 17" fill="none" xmlns="http://www.w3.org/2000/svg">
<path d="M3.85263 6.10577C3.85263 5.97587 3.9097 5.85129 4.01128 5.75943C4.11287 5.66758 4.25064 5.61598 4.3943 5.61598H10.5332C10.6768 5.61598 10.8146 5.66758 10.9162 5.75943C11.0178 5.85129 11.0749 5.97587 11.0749 6.10577C11.0749 6.23567 11.0178 6.36026 10.9162 6.45211C10.8146 6.54396 10.6768 6.59557 10.5332 6.59557H4.3943C4.25064 6.59557 4.11287 6.54396 4.01128 6.45211C3.9097 6.36026 3.85263 6.23567 3.85263 6.10577ZM4.3943 0.718018C4.25064 0.718018 4.11287 0.769621 4.01128 0.861475C3.9097 0.95333 3.85263 1.07791 3.85263 1.20781C3.85263 1.33772 3.9097 1.4623 4.01128 1.55415C4.11287 1.64601 4.25064 1.69761 4.3943 1.69761H4.57486V2.35067H3.49152C2.82111 2.35067 2.17816 2.59149 1.70411 3.02014C1.23006 3.4488 0.963745 4.03018 0.963745 4.63638V13.4527C0.963589 14.0024 1.18255 14.5338 1.58049 14.9494C1.97843 15.365 2.52869 15.637 3.13041 15.7156V16.2282C3.13041 16.3581 3.18748 16.4827 3.28906 16.5746C3.39064 16.6664 3.52842 16.718 3.67208 16.718C3.81574 16.718 3.95351 16.6664 4.05509 16.5746C4.15668 16.4827 4.21375 16.3581 4.21375 16.2282V15.7384H10.7137V16.2282C10.7137 16.3581 10.7708 16.4827 10.8724 16.5746C10.974 16.6664 11.1118 16.718 11.2554 16.718C11.3991 16.718 11.5368 16.6664 11.6384 16.5746C11.74 16.4827 11.7971 16.3581 11.7971 16.2282V15.7156C12.3987 15.6369 12.9489 15.3649 13.3468 14.9493C13.7447 14.5337 13.9638 14.0024 13.9637 13.4527V4.63638C13.9637 4.03018 13.6974 3.4488 13.2234 3.02014C12.7493 2.59149 12.1064 2.35067 11.436 2.35067H10.3526V1.69761H10.5332C10.6768 1.69761 10.8146 1.64601 10.9162 1.55415C11.0178 1.4623 11.0749 1.33772 11.0749 1.20781C11.0749 1.07791 11.0178 0.95333 10.9162 0.861475C10.8146 0.769621 10.6768 0.718018 10.5332 0.718018H4.3943ZM9.2693 1.69761V2.35067H5.65819V1.69761H9.2693ZM3.49152 3.33026H11.436C11.8191 3.33026 12.1865 3.46787 12.4573 3.71282C12.7282 3.95776 12.8804 4.28998 12.8804 4.63638V13.4527C12.8804 13.7991 12.7282 14.1313 12.4573 14.3763C12.1865 14.6212 11.8191 14.7588 11.436 14.7588H3.49152C3.10843 14.7588 2.74103 14.6212 2.47015 14.3763C2.19926 14.1313 2.04708 13.7991 2.04708 13.4527V4.63638C2.04708 4.28998 2.19926 3.95776 2.47015 3.71282C2.74103 3.46787 3.10843 3.33026 3.49152 3.33026Z" fill="white"/>
</svg>
