<svg width="21" height="16" viewBox="0 0 21 16" fill="none" xmlns="http://www.w3.org/2000/svg">
<path d="M19.6046 15.218C19.6046 15.218 20.8546 15.218 20.8546 13.968C20.8546 12.718 19.6046 8.96802 14.6046 8.96802C9.60461 8.96802 8.35461 12.718 8.35461 13.968C8.35461 15.218 9.60461 15.218 9.60461 15.218H19.6046ZM9.63211 13.968C9.62288 13.9667 9.61371 13.9651 9.60461 13.963C9.60586 13.633 9.81336 12.6755 10.5546 11.813C11.2446 11.0043 12.4571 10.218 14.6046 10.218C16.7509 10.218 17.9634 11.0055 18.6546 11.813C19.3959 12.6755 19.6021 13.6343 19.6046 13.963L19.5946 13.9655C19.5888 13.9665 19.583 13.9673 19.5771 13.968H9.63211ZM14.6046 6.46802C15.2677 6.46802 15.9035 6.20463 16.3724 5.73578C16.8412 5.26694 17.1046 4.63106 17.1046 3.96802C17.1046 3.30498 16.8412 2.66909 16.3724 2.20025C15.9035 1.73141 15.2677 1.46802 14.6046 1.46802C13.9416 1.46802 13.3057 1.73141 12.8368 2.20025C12.368 2.66909 12.1046 3.30498 12.1046 3.96802C12.1046 4.63106 12.368 5.26694 12.8368 5.73578C13.3057 6.20463 13.9416 6.46802 14.6046 6.46802ZM18.3546 3.96802C18.3546 4.46047 18.2576 4.94811 18.0692 5.40308C17.8807 5.85805 17.6045 6.27145 17.2563 6.61967C16.908 6.96789 16.4946 7.24411 16.0397 7.43257C15.5847 7.62102 15.0971 7.71802 14.6046 7.71802C14.1122 7.71802 13.6245 7.62102 13.1696 7.43257C12.7146 7.24411 12.3012 6.96789 11.953 6.61967C11.6047 6.27145 11.3285 5.85805 11.1401 5.40308C10.9516 4.94811 10.8546 4.46047 10.8546 3.96802C10.8546 2.97346 11.2497 2.01963 11.953 1.31637C12.6562 0.613106 13.6101 0.218018 14.6046 0.218018C15.5992 0.218018 16.553 0.613106 17.2563 1.31637C17.9595 2.01963 18.3546 2.97346 18.3546 3.96802ZM9.52461 9.31802C9.02459 9.16057 8.50916 9.05706 7.98711 9.00927C7.69378 8.98137 7.39927 8.96761 7.10461 8.96802C2.10461 8.96802 0.854614 12.718 0.854614 13.968C0.854614 14.8018 1.27086 15.218 2.10461 15.218H7.37461C7.18931 14.8278 7.09689 14.3999 7.10461 13.968C7.10461 12.7055 7.57586 11.4155 8.46711 10.338C8.77086 9.97052 9.12461 9.62677 9.52461 9.31802ZM7.00461 10.218C6.26481 11.3296 5.86516 12.6328 5.85461 13.968H2.10461C2.10461 13.643 2.30961 12.6805 3.05461 11.813C3.73586 11.018 4.91961 10.243 7.00461 10.2193V10.218ZM2.72961 4.59302C2.72961 3.59846 3.1247 2.64463 3.82796 1.94137C4.53123 1.23811 5.48505 0.843018 6.47961 0.843018C7.47418 0.843018 8.428 1.23811 9.13126 1.94137C9.83453 2.64463 10.2296 3.59846 10.2296 4.59302C10.2296 5.58758 9.83453 6.54141 9.13126 7.24467C8.428 7.94793 7.47418 8.34302 6.47961 8.34302C5.48505 8.34302 4.53123 7.94793 3.82796 7.24467C3.1247 6.54141 2.72961 5.58758 2.72961 4.59302ZM6.47961 2.09302C5.81657 2.09302 5.18069 2.35641 4.71185 2.82525C4.24301 3.29409 3.97961 3.92998 3.97961 4.59302C3.97961 5.25606 4.24301 5.89194 4.71185 6.36078C5.18069 6.82963 5.81657 7.09302 6.47961 7.09302C7.14266 7.09302 7.77854 6.82963 8.24738 6.36078C8.71622 5.89194 8.97961 5.25606 8.97961 4.59302C8.97961 3.92998 8.71622 3.29409 8.24738 2.82525C7.77854 2.35641 7.14266 2.09302 6.47961 2.09302Z" fill="white"/>
</svg>
